<svg width="31" height="20" viewBox="0 0 31 20" fill="none" xmlns="http://www.w3.org/2000/svg">
    <mask id="mask0_1099_1381" style="mask-type:alpha" maskUnits="userSpaceOnUse" x="0" y="0"
        width="31" height="20">
        <path fill-rule="evenodd" clip-rule="evenodd"
            d="M21.0415 4.24824L16.6181 2.60613V4.46186C16.6639 4.51424 16.7275 4.57025 16.8138 4.62892C17.0315 4.77692 17.3574 4.91696 17.7753 5.03711C18.6089 5.27692 19.7701 5.42757 21.0597 5.42757C22.3494 5.42757 23.5106 5.27692 24.3442 5.03711C24.7621 4.91696 25.088 4.77692 25.3055 4.62892C25.3452 4.60191 25.3801 4.57555 25.4107 4.54987V4.47247V2.71954L21.4558 4.24559C21.3224 4.29696 21.1753 4.29796 21.0415 4.24824ZM14.6891 6.29931C15.2262 5.65926 15.8584 5.10224 16.5656 4.64997C17.1665 5.19953 18.9513 5.59811 21.0597 5.59811C23.0827 5.59811 24.8079 5.23118 25.4749 4.71593C26.1788 5.1808 26.813 5.75522 27.3522 6.42327L24.4838 8.78558C23.8252 7.96919 22.908 7.40687 21.887 7.19375C20.8661 6.98062 19.8036 7.12944 18.8785 7.61536C17.9534 8.10111 17.2224 8.89429 16.8084 9.86116C16.6281 10.2823 16.5128 10.7253 16.4635 11.1747C16.4733 11.4603 16.4687 11.7467 16.4492 12.0329C16.4722 12.3323 16.5243 12.6307 16.606 12.9233C16.8889 13.9371 17.5091 14.8216 18.3618 15.4275C19.2148 16.0334 20.2482 16.3238 21.2881 16.2497C22.3282 16.1756 23.3112 15.7417 24.0714 15.021C24.4134 14.697 24.7009 14.3239 24.9265 13.9164H21.6159V10.4624H30.9998V10.4628H31V19.9443H27.5816V16.6387C27.2905 17.0349 26.9634 17.4065 26.6032 17.7479C25.2222 19.0568 23.437 19.845 21.5483 19.9794C19.6594 20.1138 17.7825 19.5865 16.2335 18.486C15.5809 18.0223 15.0032 17.4688 14.5147 16.8457C14.2342 17.1799 13.9265 17.493 13.5939 17.7814C12.1564 19.0267 10.3381 19.7333 8.44528 19.7824C6.55238 19.8313 4.70063 19.2197 3.20191 18.0505C1.7032 16.8813 0.64908 15.2258 0.21713 13.363C-0.214819 11.5002 0.00178721 9.54412 0.830488 7.82385C1.65917 6.10358 3.0493 4.72438 4.7667 3.91877L6.32498 7.31009C5.37937 7.75358 4.61396 8.51295 4.15767 9.46009C3.7014 10.4074 3.58212 11.4845 3.81995 12.5102C4.05778 13.5357 4.63819 14.4472 5.4634 15.0911C6.2886 15.7348 7.30819 16.0715 8.35048 16.0445C9.39267 16.0177 10.3939 15.6285 11.1853 14.9428C11.9768 14.2571 12.5102 13.3168 12.6957 12.2801C12.7141 12.1772 12.729 12.0738 12.7403 11.9702C12.7305 11.684 12.7353 11.3976 12.7546 11.1123C12.7049 10.4639 12.5189 9.82901 12.2037 9.25177C11.7 8.32949 10.8971 7.61072 9.93033 7.21662L11.3145 3.74923C12.6464 4.29199 13.807 5.174 14.6891 6.29931ZM21.1409 0.0134743C21.2111 -0.00483878 21.2849 -0.00447373 21.3551 0.0145023L26.3242 1.35867C26.6885 1.45721 26.741 1.93703 26.4478 2.12694V2.93583C26.533 2.99069 26.5896 3.08714 26.5896 3.19685C26.5896 3.26464 26.5681 3.32728 26.5316 3.37833C26.4792 3.45108 26.435 3.54406 26.4668 3.62825L26.6362 4.07704C26.6784 4.18874 26.5969 4.3084 26.4786 4.3084H26.0917C25.9734 4.3084 25.8919 4.18874 25.934 4.07704L26.1025 3.63073C26.1345 3.54604 26.0894 3.45257 26.0364 3.37932C25.9995 3.32828 25.9775 3.26513 25.9775 3.19685C25.9775 3.09112 26.0302 2.99781 26.1102 2.94196V2.26711L21.3956 4.08632C21.3003 4.12311 21.1951 4.12378 21.0995 4.08831L15.9347 2.17076C15.5461 2.02654 15.5741 1.46225 15.9748 1.35794L21.1409 0.0134743Z"
            fill="#283033" />
    </mask>
    <g mask="url(#mask0_1099_1381)">
        <rect x="-3.57812" width="37.5577" height="22.4242" fill="white" />
    </g>
</svg>